<svg width="0" height="0" class="hidden">
    <symbol xmlns="http://www.w3.org/2000/svg" viewBox="0 0 95.35 54" preserveAspectRatio="xMidYMid meet" id="m8_logo">
        <path d="M0 1.36902H13.2328L26.2988 21.0902L39.2537 1.36902H52.4865V52.6939H36.4737V34.2169L26.2988 49.6455L15.9572 34.2169V52.6939H0V1.36902ZM9.45201 46.5349V11.1985L26.2988 36.2699L43.0345 11.1985V46.5349H44.9805V7.52801H43.0345C36.4988 17.4162 32.8345 22.9601 26.2988 32.8483L9.45201 7.52801H7.50601V46.5349H9.45201Z" fill="#FF4D00"/>
        <path d="M76.8956 54C74.338 54 71.9472 53.5645 69.6676 52.6936C67.388 51.8226 65.442 50.5783 63.774 49.023C62.106 47.4055 60.7716 45.5392 59.7708 43.3618C58.77 41.1843 58.3251 38.7581 58.3251 36.1452C58.3251 33.9677 58.6032 32.1014 59.2148 30.5461C59.7708 28.9908 60.438 27.6843 61.1052 26.5645C61.8836 25.2581 62.8844 24.2005 63.9408 23.3295C63.6628 23.0184 63.4404 22.7074 63.1624 22.3341C62.8844 21.9608 62.662 21.5876 62.4952 21.1521C62.1616 20.4055 61.828 19.5346 61.55 18.5392C61.272 17.5438 61.1608 16.3618 61.1608 14.9931C61.1608 12.8779 61.55 10.9493 62.384 9.08295C63.218 7.2788 64.33 5.66129 65.7756 4.35484C67.2212 3.04839 68.8892 1.99078 70.7796 1.18203C72.67 0.435484 74.7272 0 76.84 0C79.0084 0 81.01 0.373272 82.9004 1.18203C84.7908 1.92857 86.4588 2.98618 87.9044 4.35484C89.35 5.66129 90.462 7.2788 91.296 9.08295C92.13 10.8871 92.5192 12.8779 92.5192 14.9931C92.5192 16.2995 92.3524 17.4816 92.0744 18.5392C91.7964 19.5968 91.4628 20.4677 91.0736 21.1521C90.74 21.8986 90.2952 22.6452 89.7392 23.3295C90.2396 23.765 90.74 24.2005 91.1848 24.7604C91.6852 25.3203 92.0744 25.8802 92.5192 26.5645C93.242 27.6221 93.8536 28.9908 94.4652 30.5461C95.0768 32.1014 95.3548 33.9677 95.3548 36.1452C95.3548 38.7581 94.8544 41.1843 93.9092 43.3618C92.9084 45.5392 91.6296 47.4055 89.906 49.023C88.238 50.6406 86.292 51.8226 84.0124 52.6936C81.7328 53.5645 79.4532 54 76.8956 54ZM64.9416 34.9009C64.9416 36.5806 65.2752 38.1982 65.8868 39.6912C66.4984 41.1843 67.388 42.4908 68.4444 43.5484C69.5008 44.6682 70.7796 45.5392 72.2252 46.1613C73.6708 46.7834 75.2276 47.0945 76.8956 47.0945C78.5636 47.0945 80.1204 46.7834 81.566 46.1613C83.0116 45.5392 84.2904 44.6682 85.3468 43.5484C86.4032 42.4286 87.2928 41.1221 87.9044 39.6912C88.516 38.1982 88.8496 36.6429 88.8496 34.9009C88.8496 32.7235 88.4604 30.9194 87.6264 29.4885C86.848 28.0576 85.9028 26.8756 84.902 26.0046C83.7344 25.0092 82.4556 24.1383 81.01 23.5161C81.7328 23.0806 82.5112 22.5207 83.2896 21.7742C83.8456 21.1521 84.346 20.3433 84.8464 19.4101C85.3468 18.4147 85.5692 17.2949 85.5692 15.9263C85.5692 14.682 85.3468 13.5622 84.902 12.5046C84.4572 11.447 83.8456 10.5138 83.0116 9.76728C82.2332 9.02074 81.288 8.39862 80.2872 7.90092C79.2864 7.46544 78.1744 7.21659 76.9512 7.21659C75.728 7.21659 74.616 7.46544 73.6152 7.90092C72.6144 8.33641 71.6692 8.95853 70.8908 9.76728C70.1124 10.5138 69.4452 11.447 69.0004 12.5046C68.5556 13.5622 68.3332 14.682 68.3332 15.9263C68.3332 17.2327 68.5556 18.4147 69.056 19.4101C69.5564 20.4055 70.0568 21.1521 70.6128 21.7742C71.3356 22.5207 72.114 23.1429 72.8924 23.5161C71.4468 24.1383 70.1124 24.947 69.0004 26.0046C67.9996 26.8756 67.11 28.0576 66.276 29.4885C65.3308 30.9816 64.9416 32.7857 64.9416 34.9009ZM66.9988 34.9009C66.9988 33.5323 67.2768 32.2258 67.7772 30.9816C68.2776 29.7373 69.0004 28.6797 69.89 27.7465C70.7796 26.8134 71.836 26.0668 73.0592 25.5691C74.2824 25.0092 75.5612 24.7604 76.8956 24.7604C78.23 24.7604 79.5088 25.0092 80.732 25.5691C81.9552 26.129 83.0116 26.8134 83.9012 27.7465C84.7908 28.6797 85.5136 29.7373 86.014 30.9816C86.5144 32.2258 86.7924 33.5323 86.7924 34.9009C86.7924 36.2696 86.5144 37.576 86.014 38.8203C85.5136 40.0645 84.7908 41.1221 83.9012 42.0553C83.0116 42.9885 81.9552 43.735 80.732 44.2327C79.5088 44.7926 78.23 45.0415 76.8956 45.0415C75.5612 45.0415 74.2824 44.7926 73.0592 44.2327C71.836 43.6728 70.7796 42.9885 69.89 42.0553C69.0004 41.1221 68.2776 40.0645 67.7772 38.8203C67.2212 37.6383 66.9988 36.3318 66.9988 34.9009ZM70.2236 16.0507C70.2236 14.1221 70.8908 12.5668 72.1696 11.2604C73.4484 9.95392 75.0608 9.3318 76.8956 9.3318C78.7304 9.3318 80.3428 9.95392 81.6216 11.2604C82.9004 12.5668 83.5676 14.1221 83.5676 16.0507C83.5676 17.9793 82.9004 19.5346 81.6216 20.841C80.3428 22.1475 78.7304 22.8318 76.8956 22.8318C75.0608 22.8318 73.4484 22.1475 72.1696 20.841C70.8352 19.5346 70.2236 17.9793 70.2236 16.0507ZM72.8368 34.9009C72.8368 36.083 73.226 37.0783 74.0044 37.8871C74.7828 38.6959 75.728 39.0691 76.8956 39.0691C78.0632 39.0691 79.0084 38.6959 79.7868 37.8871C80.5652 37.0783 80.9544 36.083 80.9544 34.9009C80.9544 33.7189 80.5652 32.7235 79.7868 31.9147C79.0084 31.106 78.0632 30.7327 76.8956 30.7327C75.728 30.7327 74.7828 31.106 74.0044 31.9147C73.226 32.7235 72.8368 33.7189 72.8368 34.9009ZM74.338 16.1129C74.338 16.8594 74.5604 17.4194 75.1164 17.9793C75.6168 18.477 76.2284 18.7258 76.8956 18.7258C77.6184 18.7258 78.1744 18.477 78.6748 17.9793C79.1752 17.4816 79.4532 16.8594 79.4532 16.1129C79.4532 15.3664 79.1752 14.8065 78.6748 14.2465C78.1744 13.7488 77.5628 13.5 76.8956 13.5C76.1728 13.5 75.6168 13.7488 75.1164 14.2465C74.5604 14.8065 74.338 15.4286 74.338 16.1129Z" fill="#FF4D00"/>
    </symbol>
    <symbol xmlns="http://www.w3.org/2000/svg" viewBox="0 0 94 13.64" preserveAspectRatio="xMidYMid meet" id="systems_logo">
        <path fill-rule="evenodd" clip-rule="evenodd" d="M0 11.5379L0.806997 10.4342C2.03244 11.6716 3.1981 12.307 4.81209 12.307C6.39619 12.307 7.41241 11.3706 7.41241 10.0329V9.99948C7.41241 8.76208 6.81463 8.05978 4.36376 7.49125C1.67377 6.82239 0.448331 5.85254 0.448331 3.64529V3.61185C0.448331 1.53838 2.06232 0 4.30398 0C6.00764 0 7.23308 0.535089 8.42863 1.63871L7.65152 2.80922C6.57552 1.80593 5.46964 1.37117 4.27409 1.37117C2.74976 1.37117 1.79332 2.30757 1.79332 3.51152C1.79332 4.74892 2.3911 5.45122 4.96153 6.08664C7.56185 6.7555 8.7574 7.82568 8.7574 9.86571V9.89915C8.7574 12.1733 7.08363 13.6448 4.75231 13.6448C2.9291 13.6448 1.40477 12.9425 0 11.5379ZM17.5147 8.19342L12.6429 0.167084H14.2569L18.2022 6.82226L22.1774 0.167084H23.7017L18.8597 8.19342V13.4774H17.5147V8.19342ZM28.1553 10.4342L27.3483 11.5379C28.7531 12.9425 30.2774 13.6448 32.1305 13.6113C34.4618 13.6113 36.1356 12.1398 36.1356 9.8657V9.83226C36.1356 7.82568 34.9101 6.72206 32.3098 6.08664C29.7394 5.45122 29.1416 4.74892 29.1416 3.51152C29.1416 2.30757 30.0981 1.37117 31.6224 1.37117C32.8179 1.37117 33.9238 1.80593 34.9998 2.80922L35.7769 1.63871C34.5814 0.535089 33.3559 0 31.6523 0C29.4106 0 27.7966 1.53838 27.7966 3.61185V3.64529C27.7966 5.85254 29.0221 6.82238 31.712 7.49125C34.1629 8.05978 34.7607 8.76208 34.7607 9.99948V10.0329C34.7607 11.3706 33.7445 12.307 32.1604 12.307C30.5464 12.307 29.3807 11.6716 28.1553 10.4342ZM44.6239 1.57169H40.7084V0.167084H49.9142V1.53825H45.9987V13.444H44.6239V1.57169ZM63.7228 0.167084H55.2643V13.4774H63.8125V12.1063H56.5794V7.45767H62.9756V6.08651H56.5794V1.53825H63.7228V0.167084ZM68.9535 0.167084H70.2985L74.5726 7.42423L78.8168 0.167084H80.1618V13.444H78.8467V2.70876L74.5726 9.83213H74.5128L70.2387 2.70876V13.444H68.9535V0.167084ZM86.0197 10.4342L85.2127 11.5379C86.6175 12.9425 88.1418 13.6448 89.9949 13.6113C92.3262 13.6113 94 12.1398 94 9.8657V9.83226C94 7.82568 92.7746 6.72206 90.1742 6.08664C87.6038 5.45122 87.006 4.74892 87.006 3.51152C87.006 2.30757 87.9625 1.37117 89.4868 1.37117C90.6824 1.37117 91.7882 1.80593 92.8642 2.80922L93.6413 1.63871C92.4458 0.535089 91.2204 0 89.5167 0C87.275 0 85.661 1.53838 85.661 3.61185V3.64529C85.661 5.85254 86.8865 6.82238 89.5765 7.49125C92.0273 8.05978 92.6251 8.76208 92.6251 9.99948V10.0329C92.6251 11.3706 91.6089 12.307 90.0248 12.307C88.4108 12.307 87.2451 11.6716 86.0197 10.4342Z" fill="white"/>
    </symbol>
    <symbol xmlns="http://www.w3.org/2000/svg" viewBox="0 0 24 24" preserveAspectRatio="xMidYMid meet" id="arrow_back">
        <path d="M20 11H7.83l5.59-5.59L12 4l-8 8 8 8 1.41-1.41L7.83 13H20v-2z"/>
    </symbol>
    <symbol xmlns="http://www.w3.org/2000/svg" viewBox="0 0 21 21" preserveAspectRatio="xMidYMid meet" id="alert">
        <path d="M5 5.9L2.87 3.78L4.28 2.37L6.4 4.5L5 5.9ZM12 0V3H10V0H12ZM19.13 3.78L17 5.9L15.6 4.5L17.72 2.37L19.13 3.78ZM3.5 9.5V11.5H0.5V9.5H3.5ZM18.5 9.5H21.5V11.5H18.5V9.5ZM5 19H17C17.5304 19 18.0391 19.2107 18.4142 19.5858C18.7893 19.9609 19 20.4696 19 21H3C3 20.4696 3.21071 19.9609 3.58579 19.5858C3.96086 19.2107 4.46957 19 5 19ZM11 4C12.5913 4 14.1174 4.63214 15.2426 5.75736C16.3679 6.88258 17 8.4087 17 10V18H5V10C5 8.4087 5.63214 6.88258 6.75736 5.75736C7.88258 4.63214 9.4087 4 11 4Z"/>
    </symbol>
    <symbol xmlns="http://www.w3.org/2000/svg" viewBox="0 0 18 12" preserveAspectRatio="xMidYMid meet" id="hamburger">
        <path d="M0 0H18V2H0V0ZM0 5H18V7H0V5ZM0 10H18V12H0V10Z" />
    </symbol>
    <symbol xmlns="http://www.w3.org/2000/svg" viewBox="0 0 20 20" preserveAspectRatio="xMidYMid meet" id="waterguard-icon">
        <path d="M17 12.5C17 12.5 19 14.67 19 16C19 16.5304 18.7893 17.0391 18.4142 17.4142C18.0391 17.7893 17.5304 18 17 18C16.4696 18 15.9609 17.7893 15.5858 17.4142C15.2107 17.0391 15 16.5304 15 16C15 14.67 17 12.5 17 12.5ZM3 16V7C2.46957 7 1.96086 6.78929 1.58579 6.41421C1.21071 6.03914 1 5.53043 1 5C1 4.46957 1.21071 3.96086 1.58579 3.58579C1.96086 3.21071 2.46957 3 3 3V2C3 1.46957 3.21071 0.960859 3.58579 0.585786C3.96086 0.210714 4.46957 0 5 0H7C7.53043 0 8.03914 0.210714 8.41421 0.585786C8.78929 0.960859 9 1.46957 9 2V3H17C17.5304 3 18.0391 3.21071 18.4142 3.58579C18.7893 3.96086 19 4.46957 19 5V9C19.2652 9 19.5196 9.10536 19.7071 9.29289C19.8946 9.48043 20 9.73478 20 10C20 10.2652 19.8946 10.5196 19.7071 10.7071C19.5196 10.8946 19.2652 11 19 11H15C14.7348 11 14.4804 10.8946 14.2929 10.7071C14.1054 10.5196 14 10.2652 14 10C14 9.73478 14.1054 9.48043 14.2929 9.29289C14.4804 9.10536 14.7348 9 15 9V7H9V16H10C10.5304 16 11.0391 16.2107 11.4142 16.5858C11.7893 16.9609 12 17.4696 12 18V20H0V18C0 17.4696 0.210714 16.9609 0.585786 16.5858C0.960859 16.2107 1.46957 16 2 16H3Z"/>
    </symbol>
    <symbol xmlns="http://www.w3.org/2000/svg" viewBox="0 0 18 20" preserveAspectRatio="xMidYMid meet" id="schedule-icon">
        <path d="M16 2.00001H15V7.62939e-06H13V2.00001H5V7.62939e-06H3V2.00001H2C0.89 2.00001 0 2.89001 0 4.00001V18C0 18.5304 0.210714 19.0391 0.585786 19.4142C0.960859 19.7893 1.46957 20 2 20H16C17.1 20 18 19.1 18 18V4.00001C18 3.46957 17.7893 2.96087 17.4142 2.58579C17.0391 2.21072 16.5304 2.00001 16 2.00001ZM16 18H2V7.00001H16V18ZM9 16V14H5V11H9V9.00001L13 12.5L9 16Z"/>
    </symbol>
    <symbol xmlns="http://www.w3.org/2000/svg" viewBox="0 0 20 19" preserveAspectRatio="xMidYMid meet" id="analytics-icon">
        <path d="M15.45 13.18L20 5.31V19H0V1H2V13.54L7.5 4.00001L14 7.78001L18.24 0.450005L19.97 1.45L14.74 10.5L8.23 6.75001L2.31 17H4.57L8.96 9.44001L15.45 13.18Z"/>
    </symbol>
    <symbol xmlns="http://www.w3.org/2000/svg" viewBox="0 0 10 18" preserveAspectRatio="xMidYMid meet" id="cost-projection-icon">
        <path d="M0 12H2C2 13.08 3.37 14 5 14C6.63 14 8 13.08 8 12C8 10.9 6.96 10.5 4.76 9.97C2.64 9.44 0 8.78 0 6C0 4.21 1.47 2.69 3.5 2.18V0H6.5V2.18C8.53 2.69 10 4.21 10 6H8C8 4.92 6.63 4 5 4C3.37 4 2 4.92 2 6C2 7.1 3.04 7.5 5.24 8.03C7.36 8.56 10 9.22 10 12C10 13.79 8.53 15.31 6.5 15.82V18H3.5V15.82C1.47 15.31 0 13.79 0 12Z"/>
    </symbol>
    <symbol xmlns="http://www.w3.org/2000/svg" viewBox="0 0 20 20" preserveAspectRatio="xMidYMid meet" id="manual-control-icon">
        <path d="M9.99989 6C11.0608 6 12.0782 6.42143 12.8283 7.17157C13.5785 7.92172 13.9999 8.93913 13.9999 10C13.9999 11.0609 13.5785 12.0783 12.8283 12.8284C12.0782 13.5786 11.0608 14 9.99989 14C8.93903 14 7.92161 13.5786 7.17147 12.8284C6.42132 12.0783 5.99989 11.0609 5.99989 10C5.99989 8.93913 6.42132 7.92172 7.17147 7.17157C7.92161 6.42143 8.93903 6 9.99989 6ZM9.99989 8C9.46946 8 8.96075 8.21071 8.58568 8.58579C8.21061 8.96086 7.99989 9.46957 7.99989 10C7.99989 10.5304 8.21061 11.0391 8.58568 11.4142C8.96075 11.7893 9.46946 12 9.99989 12C10.5303 12 11.039 11.7893 11.4141 11.4142C11.7892 11.0391 11.9999 10.5304 11.9999 10C11.9999 9.46957 11.7892 8.96086 11.4141 8.58579C11.039 8.21071 10.5303 8 9.99989 8ZM7.99989 20C7.74989 20 7.53989 19.82 7.49989 19.58L7.12989 16.93C6.49989 16.68 5.95989 16.34 5.43989 15.94L2.94989 16.95C2.72989 17.03 2.45989 16.95 2.33989 16.73L0.339893 13.27C0.278688 13.167 0.257111 13.0452 0.279197 12.9274C0.301283 12.8096 0.365519 12.7039 0.459893 12.63L2.56989 10.97L2.49989 10L2.56989 9L0.459893 7.37C0.365519 7.29613 0.301283 7.19042 0.279197 7.07263C0.257111 6.95484 0.278688 6.83304 0.339893 6.73L2.33989 3.27C2.45989 3.05 2.72989 2.96 2.94989 3.05L5.43989 4.05C5.95989 3.66 6.49989 3.32 7.12989 3.07L7.49989 0.42C7.53989 0.18 7.74989 0 7.99989 0H11.9999C12.2499 0 12.4599 0.18 12.4999 0.42L12.8699 3.07C13.4999 3.32 14.0399 3.66 14.5599 4.05L17.0499 3.05C17.2699 2.96 17.5399 3.05 17.6599 3.27L19.6599 6.73C19.7899 6.95 19.7299 7.22 19.5399 7.37L17.4299 9L17.4999 10L17.4299 11L19.5399 12.63C19.7299 12.78 19.7899 13.05 19.6599 13.27L17.6599 16.73C17.5399 16.95 17.2699 17.04 17.0499 16.95L14.5599 15.95C14.0399 16.34 13.4999 16.68 12.8699 16.93L12.4999 19.58C12.4599 19.82 12.2499 20 11.9999 20H7.99989ZM9.24989 2L8.87989 4.61C7.67989 4.86 6.61989 5.5 5.84989 6.39L3.43989 5.35L2.68989 6.65L4.79989 8.2C4.39989 9.36667 4.39989 10.6333 4.79989 11.8L2.67989 13.36L3.42989 14.66L5.85989 13.62C6.62989 14.5 7.67989 15.14 8.86989 15.38L9.23989 18H10.7599L11.1299 15.39C12.3199 15.14 13.3699 14.5 14.1399 13.62L16.5699 14.66L17.3199 13.36L15.1999 11.81C15.5999 10.64 15.5999 9.37 15.1999 8.2L17.3099 6.65L16.5599 5.35L14.1499 6.39C13.3641 5.48032 12.2982 4.85767 11.1199 4.62L10.7499 2H9.24989Z"/>
    </symbol>
</svg>
